<?xml version="1.0" encoding="UTF-8"?>
<!DOCTYPE svg PUBLIC "-//W3C//DTD SVG 1.1//EN" "http://www.w3.org/Graphics/SVG/1.1/DTD/svg11.dtd">
<!-- Creator: CorelDRAW -->
<svg xmlns="http://www.w3.org/2000/svg" xml:space="preserve" width="206.512mm" height="79.243mm" version="1.1" style="shape-rendering:geometricPrecision; text-rendering:geometricPrecision; image-rendering:optimizeQuality; fill-rule:evenodd; clip-rule:evenodd"
viewBox="0 0 20650.18 7923.9"
 xmlns:xlink="http://www.w3.org/1999/xlink"
 xmlns:xodm="http://www.corel.com/coreldraw/odm/2003">
 <defs>
  <style type="text/css">
   <![CDATA[
    .fil3 {fill:black}
    .fil4 {fill:lime}
    .fil2 {fill:white}
    .fil1 {fill:lime;fill-rule:nonzero}
    .fil0 {fill:white;fill-rule:nonzero}
   ]]>
  </style>
    <mask id="id0">
  <linearGradient id="id1" gradientUnits="userSpaceOnUse" x1="16934.52" y1="3559.42" x2="20842.65" y2="1662.6">
   <stop offset="0" style="stop-opacity:1; stop-color:white"/>
   <stop offset="1" style="stop-opacity:0; stop-color:white"/>
  </linearGradient>
     <rect style="fill:url(#id1)" x="14648.6" y="1263.62" width="5134.45" height="3254.95"/>
    </mask>
 </defs>
 <g id="Camada_x0020_1">
  <metadata id="CorelCorpID_0Corel-Layer"/>
  <g id="_2062436184688">
   <path class="fil0" d="M2113.89 5383.72c-2.93,489.29 -138.44,867.97 -406.52,1136.05 -268.09,268.08 -637.98,402.12 -1109.68,402.12l-597.69 0 0 -3076.34 597.69 0c471.71,0 841.6,134.04 1109.68,402.12 268.08,268.09 403.59,646.77 406.52,1136.05zm-1463.47 1151.43c325.21,0 574.98,-107.67 749.31,-323.01 174.32,-215.35 264.42,-491.49 270.28,-828.42 -5.86,-336.93 -95.96,-613.07 -270.28,-828.42 -174.33,-215.34 -424.1,-323.01 -749.31,-323.01l-237.32 0 0 2302.86 237.32 0z"/>
   <path id="_1" class="fil0" d="M3212.59 6921.89l-386.74 0 0 -1740.33 -360.37 0 175.79 -369.16 571.32 0 0 2109.49zm-404.32 -2548.97c-38.09,-49.81 -57.13,-104.01 -57.13,-162.61 0,-58.6 19.04,-112.06 57.13,-160.4 38.09,-48.35 96.69,-72.52 175.79,-72.52 79.11,0 137.7,24.17 175.79,72.52 38.09,48.34 57.14,101.8 57.14,160.4 0,58.6 -19.05,112.07 -57.14,160.41 -38.09,48.35 -96.69,72.52 -175.79,72.52 -79.11,0 -137.7,-23.44 -175.79,-70.32z"/>
   <path id="_2" class="fil0" d="M4781.53 6921.89c-287.13,0 -533.23,-96.69 -738.32,-290.06 -205.09,-193.37 -307.63,-440.95 -307.63,-742.72 0,-304.7 103.27,-560.33 309.82,-766.88 206.56,-206.56 462.19,-309.83 766.89,-309.83l1032.78 0 0 2047.97c0,131.84 -16.85,250.51 -50.55,355.98 -33.69,105.47 -81.3,194.83 -142.82,268.08 -61.53,73.25 -117.19,130.38 -167,171.4 -49.81,41.02 -109.87,83.5 -180.19,127.44 -181.65,93.76 -402.85,140.63 -663.61,140.63l-492.21 0 0 -369.16 452.66 0c257.83,0 440.95,-32.23 549.35,-96.69 199.23,-111.33 298.84,-295.91 298.84,-553.74l0 -1722.75 -637.25 0c-208.02,0 -373.55,64.46 -496.6,193.37 -123.05,128.91 -184.58,300.3 -184.58,514.18 0,205.09 63.72,366.97 191.17,485.63 127.44,118.66 280.54,177.99 459.26,177.99 193.37,0 363.3,-52.74 509.79,-158.21l0 395.53c-158.21,87.9 -328.14,131.84 -509.79,131.84z"/>
   <path id="_3" class="fil0" d="M6965.73 6921.89l-386.74 0 0 -1740.33 -360.37 0 175.79 -369.16 571.32 0 0 2109.49zm-404.32 -2548.97c-38.09,-49.81 -57.13,-104.01 -57.13,-162.61 0,-58.6 19.04,-112.06 57.13,-160.4 38.09,-48.35 96.69,-72.52 175.79,-72.52 79.11,0 137.7,24.17 175.79,72.52 38.09,48.34 57.14,101.8 57.14,160.4 0,58.6 -19.05,112.07 -57.14,160.41 -38.09,48.35 -96.69,72.52 -175.79,72.52 -79.11,0 -137.7,-23.44 -175.79,-70.32z"/>
   <path id="_4" class="fil0" d="M7334.89 5181.56l786.67 -786.67 0 417.51 593.29 0 0 369.16 -593.29 0 0 905.32c0,102.54 16.84,187.51 50.54,254.9 33.69,67.39 82.77,114.99 147.22,142.83 64.46,27.83 125.25,46.14 182.38,54.93 57.14,8.79 128.18,13.19 213.15,13.19l0 369.16c-336.93,0 -585.97,-64.46 -747.11,-193.37 -161.14,-128.91 -241.71,-342.79 -241.71,-641.64l0 -905.32 -391.14 0z"/>
   <path id="_5" class="fil0" d="M10305.77 5682.56l0 395.53c-111.33,-84.97 -247.58,-127.45 -408.72,-127.45 -137.7,0 -244.64,27.11 -320.81,81.31 -76.18,54.21 -114.26,131.11 -114.26,230.73 0,193.37 143.56,290.06 430.69,290.06l580.11 0 0 -839.41c0,-354.51 -172.86,-531.76 -518.58,-531.76l-703.16 0 0 -369.16 725.13 0c284.2,0 502.47,70.32 654.83,210.95 152.35,140.63 228.53,342.79 228.53,606.48l0 1292.06 -980.04 0c-249.04,0 -446.8,-55.67 -593.29,-167 -146.49,-111.33 -219.74,-273.95 -219.74,-487.83 0,-213.88 77.64,-376.48 232.92,-487.82 155.28,-111.33 350.12,-167 584.51,-167 131.84,0 272.48,23.44 421.9,70.32z"/>
   <path id="_6" class="fil0" d="M11342.93 6086.88l0 -2241.34 395.53 0 0 2241.34c0,105.47 12.45,191.17 37.36,257.1 24.9,65.92 63.73,112.79 116.46,140.63 52.74,27.83 104,46.14 153.81,54.93 49.81,8.79 115.73,13.19 197.77,13.19l0 369.16c-328.14,0 -560.34,-63 -696.57,-188.98 -136.24,-125.98 -204.36,-341.32 -204.36,-646.03z"/>
   <path id="_7" class="fil1" d="M12986.58 6921.89l-413.11 0 0 -3076.34 1085.51 0c363.3,0 634.31,81.31 813.03,243.91 178.72,162.61 268.09,418.24 268.09,766.89l0 2065.54 -413.11 0 0 -2122.68c0,-199.23 -60.8,-343.52 -182.39,-432.88 -121.58,-89.37 -282,-134.04 -481.23,-134.04l-676.8 0 0 2689.6z"/>
   <path id="_8" class="fil1" d="M18962.59 4812.4l0 369.16 -777.88 0c-84.97,0 -158.21,16.11 -219.74,48.34 -61.53,32.23 -92.29,77.65 -92.29,136.24 0,35.16 7.32,66.66 21.97,94.49 14.65,27.84 31.5,50.54 50.54,68.12 19.05,17.58 48.35,35.9 87.9,54.94 39.56,19.05 70.32,32.23 92.3,39.56 21.97,7.32 114.99,37.35 279.07,90.09 164.07,52.74 285.67,96.69 364.77,131.84 79.11,35.16 139.89,82.78 182.38,142.83 42.48,60.07 69.59,118.66 81.31,175.79 11.72,57.14 17.58,113.53 17.58,169.2 0,392.6 -269.55,588.9 -808.64,588.9l-760.3 0 0 -369.16 760.3 0c275.41,0 413.11,-73.25 413.11,-219.74 0,-70.32 -40.29,-128.91 -120.86,-175.79 -80.57,-46.88 -178.72,-86.44 -294.45,-118.66 -115.73,-32.23 -231.46,-69.58 -347.19,-112.06 -115.72,-42.48 -213.88,-111.33 -294.45,-206.55 -80.58,-95.23 -120.85,-213.15 -120.85,-353.78 0,-178.72 68.85,-315.69 206.55,-410.91 137.7,-95.23 304.7,-142.83 501,-142.83l777.88 0z"/>
   <path id="_9" class="fil1" d="M19270.22 5181.56l786.67 -786.67 0 417.51 593.29 0 0 369.16 -593.29 0 0 905.32c0,102.54 16.84,187.51 50.54,254.9 33.69,67.39 82.77,114.99 147.22,142.83 64.46,27.83 125.25,46.14 182.38,54.93 57.14,8.79 128.18,13.19 213.15,13.19l0 369.16c-336.93,0 -585.97,-64.46 -747.11,-193.37 -161.14,-128.91 -241.71,-342.79 -241.71,-641.64l0 -905.32 -391.14 0z"/>
   <path id="_10" class="fil1" d="M16316.56 4777.85c495.89,20.42 743.85,226.07 743.85,616.96 0,487.15 -319.42,730.72 -958.26,730.72l-179.4 0 0 -336.92 210.03 0c195.45,0 331.09,-29.9 406.93,-89.7 75.85,-59.8 113.77,-159.71 113.77,-299.73 0,-90.43 -33.55,-158.24 -100.64,-203.46 -67.09,-45.22 -153.14,-67.83 -258.16,-67.83 -207.11,0 -369.74,72.93 -487.89,218.78 -118.13,145.86 -177.21,320.88 -177.21,525.07 0,215.87 63.45,390.89 190.34,525.07 126.89,134.18 292.44,201.28 496.63,201.28 183.77,0 334,-45.22 450.69,-135.64l262.54 258.16c-201.28,163.36 -439.03,245.04 -713.22,245.04 -332.55,0 -598,-97.73 -796.36,-293.17 -198.36,-195.45 -297.54,-447.77 -297.54,-756.98 0,-344.21 97.73,-622.79 293.17,-835.74 195.45,-212.95 462.36,-313.58 800.74,-301.91z"/>
   <path class="fil2" d="M16494.42 104.63c-149.02,59.08 -254.8,100.14 -381.11,176.73 -112.51,68.23 -213.72,144.57 -300.69,224.95 -181.29,167.56 -335.51,369.21 -443.91,591.47 -43.68,89.58 -79.92,182.48 -107.49,277.87 -34.88,120.64 -56.7,222.53 -72.9,353.88 -27.57,223.55 -6.87,583.52 92.27,838.7 104.3,268.49 206.58,471.67 400.86,680.34 153.96,165.39 287.47,270.49 476.24,378.37 23.88,13.64 47.15,29.16 75.38,43.01 204.81,100.48 406.16,170.4 672.01,201.61 409.31,48.04 851.55,-46.62 1216.52,-268.2 518,-314.47 857.96,-844.33 925.27,-1448.08 25.97,-232.82 9.52,-570.7 -91.79,-837.1 -115.18,-302.85 -218.25,-475.99 -401.09,-680.55 -79.71,-89.18 -169.88,-172.2 -260.73,-238.07 -94.57,-68.57 -185.83,-133.23 -290.46,-184.49 -318.81,-156.18 -683.47,-245.98 -1064.9,-205.31 -129.92,13.85 -316.23,44.42 -443.48,94.87z"/>
   <g>
    <path class="fil3" d="M17033.34 1950.02c-37.9,36.33 -16.44,-39.14 -28.72,30.32 55.63,34.86 22.42,4.12 32.37,-1.43 111.29,-29.39 331.52,-148.62 354.81,20.48 17.25,125.16 -194.18,185.91 -292.64,235.34 -467.46,234.68 -451.04,262.09 -751.62,83.18 -308.02,-183.33 -534.68,-184.47 -348.24,-597.24 54.91,-121.57 127.13,-231.21 189.17,-346.72 119.82,-223.12 240.27,-201.54 290.18,-79.41l1.34 79.81c75.64,-15.3 24.09,4.66 35.87,-35.86l8.42 -26.46c25.79,1.62 20.04,7.7 17.46,-18.03 28.44,6.59 21.42,12.35 21.42,-16.8l143.71 0.05c0,28.6 -6.8,22.34 21.74,17.13 -3.69,26.26 -9.9,20.56 15.58,19.76l16.42 36.79 -7.6 80.97c70.4,-13.39 33.34,2.77 43.45,-37.41l14.72 -25.83c82.94,-130.74 216.6,-84.03 241.47,73.23 -15.1,21.29 -23.99,-39.66 -12.72,43.65 36.48,-20.79 14.28,0.66 41.71,-30.34 31.53,-35.63 9.5,-6.64 28.01,-49.8 10.08,-46.92 62.31,-103.62 97.23,-154.89 47.13,-69.2 71.47,-94.11 187.36,-65.42 179.75,97.84 -156.09,454.44 -238.72,586.2 -32.12,51.24 -100.66,134.73 -122.16,178.74z"/>
    <path class="fil3" d="M17201.04 2538.98c8.2,45.75 163.29,25 212.39,25 80.94,-6.4 24.3,-1.31 46.4,-20.06 31.78,9.73 28.86,18.47 20.53,-12.76 44.44,-29.64 23.82,-42.63 2.64,-68.51 6.84,-30.22 11.78,-23.97 -18.17,-15.03 -47.42,-29.57 -72.23,-19.48 -137.94,-19.71 -14.19,-0.05 -60.3,-1.86 -70.77,-0.7 -76.24,8.42 -38.52,-3.06 -58.95,27.95 -31.11,-7.77 -22.54,-11.44 -14.86,21.19 -61.36,-6.88 -6.08,35.99 -5.39,36.94l-2.14 3.17c2.76,36.4 -7.43,30.82 26.26,22.52zm-372.21 -2055.55c-111.18,46.22 -120.28,59.66 -119.69,262.87 0.38,131.79 1.88,265.28 -1.04,396.91l-138.04 -7.21 1.85 -575.12c32.66,-237.07 228.29,-234.9 478.38,-234.79 236.25,0.11 473.33,-2.11 709.43,-0.51 246.72,1.66 340.53,125.6 340.17,368.31l-0.32 1440.12c0.01,249.5 26.89,458.72 -188.81,533.53 -93.44,32.41 -551,16.02 -687.55,16.02 -252.21,0 -475.05,47.34 -600.19,-115.91 32.74,-24.11 211.39,-70.42 274.16,-101.71 91.46,-45.61 180.41,-90.06 266.6,-130.16 173.64,-80.8 543.34,21.97 741.72,-38.78 79.74,-109.29 39.46,-521.42 39.46,-700.7 0,-1179.9 92.44,-1113.51 -375.9,-1113.4 -246.68,0.07 -493.77,-0.74 -740.22,0.55z"/>
    <path class="fil3" d="M16418.36 2482.41c3.72,2.87 8.54,6.8 11.11,8.68l44.06 30.31c84.21,57.6 38.05,116.17 7.78,197.54l0.64 1.27c-2.84,3.47 -6.81,8.04 -8.64,10.33l-31.4 41.57c-27.18,35.86 -2.71,7.7 -32.56,44.06l-131.2 -22.01c-131.84,-100.57 -468.28,-236.51 -553.9,-347.93 -9.82,-77.52 46.42,-177.89 86.75,-220.32 68.77,-72.35 143.16,-14.88 207.72,22.83 133.23,77.83 273.39,153.29 399.65,233.68z"/>
    <path class="fil3" d="M17113.01 601.6l109.89 -14.7 225.1 2.65c146.18,0 197.35,151.97 -50.89,150.65 -162.99,-0.87 -340.02,49.45 -284.11,-138.6z"/>
    <path class="fil3" d="M17052.64 1441.88l57 -36.49c-18.51,43.16 3.52,14.17 -28.01,49.8 -27.43,31 -5.23,9.55 -41.71,30.34 -11.27,-83.31 -2.38,-22.36 12.72,-43.65z"/>
   </g>
   <path class="fil4" style="mask:url(#id0)" d="M18895.14 1263.87l180.03 418.68c87.26,33.77 171.53,75.07 244.2,121.95 377.85,243.82 -169.2,481.51 -368.49,565.45 -995.09,419.13 -2736.44,609.17 -3691.22,-26.17 -390.03,-259.52 -290.22,-443.71 -47.35,-575.4l149.33 -447.99c-210.93,75.01 -415.06,177.35 -528.02,289.96 -195.69,195.06 -215.71,385.46 -153.06,722.78 460.82,2481.3 3661.78,3021.53 4832.15,724.1 197.27,-387.24 442.32,-1101.21 96.56,-1436.04 -162.04,-156.92 -385.51,-255.82 -619.56,-328.35 -32.82,-10.17 -64.36,-19.9 -94.57,-28.98z"/>
   <path class="fil3" d="M16905.58 3109.38c-348.28,0.35 -704.46,-51.91 -1011.12,-130.78 -214.01,-55.05 -687.11,-237.01 -781.44,-357.99 -11.54,148.24 162.18,371.02 259.57,450.33 435.55,354.71 1272.21,418.8 1836.73,404.09 672.3,-17.5 1980.44,-352.97 2113.09,-890.47 -97.54,14.04 -186.72,73.8 -263.2,104.86 -666.12,270.63 -1413.68,419.24 -2153.63,419.97z"/>
   <path class="fil3" d="M15806.91 3655.11c25.4,59.09 3.29,33.48 64.63,78.88 26.41,19.54 49.68,31.54 75.53,48.96 63.16,42.55 96.75,64.2 165.7,102.63 613.69,342.13 1463.23,386.82 2105.96,37.66 145.6,-79.1 529.01,-324.71 583.2,-476.65 -94.07,17.11 -229.38,87.33 -318.5,119.25 -704.24,252.32 -1568.14,340.17 -2298.55,175.1 -122.62,-27.72 -252.45,-76.36 -377.96,-85.84z"/>
  </g>
 </g>
</svg>
