<?xml version="1.0" encoding="UTF-8"?>
<!DOCTYPE svg PUBLIC "-//W3C//DTD SVG 1.1//EN" "http://www.w3.org/Graphics/SVG/1.1/DTD/svg11.dtd">
<!-- Creator: CorelDRAW -->
<svg xmlns="http://www.w3.org/2000/svg" xml:space="preserve" width="51.3421mm" height="45.1855mm" version="1.1" style="shape-rendering:geometricPrecision; text-rendering:geometricPrecision; image-rendering:optimizeQuality; fill-rule:evenodd; clip-rule:evenodd"
viewBox="0 0 3048.5 2682.95"
 xmlns:xlink="http://www.w3.org/1999/xlink"
 xmlns:xodm="http://www.corel.com/coreldraw/odm/2003">
 <defs>
  <style type="text/css">
   <![CDATA[
    .fil1 {fill:black}
    .fil2 {fill:lime}
    .fil0 {fill:white}
   ]]>
  </style>
   <mask id="id0">
  <linearGradient id="id1" gradientUnits="userSpaceOnUse" x1="1357.22" y1="2113.56" x2="3677.84" y2="987.24">
   <stop offset="0" style="stop-opacity:1; stop-color:white"/>
   <stop offset="1" style="stop-opacity:0; stop-color:white"/>
  </linearGradient>
    <rect style="fill:url(#id1)" x="-0.15" y="750.33" width="3048.8" height="1932.77"/>
   </mask>
 </defs>
 <g id="Camada_x0020_1">
  <metadata id="CorelCorpID_0Corel-Layer"/>
  <path class="fil0" d="M1095.89 62.13c-88.49,35.08 -151.3,59.47 -226.3,104.94 -66.81,40.51 -126.9,85.85 -178.55,133.57 -107.65,99.5 -199.23,219.24 -263.59,351.21 -25.94,53.19 -47.45,108.36 -63.83,164.99 -20.71,71.64 -33.67,132.14 -43.29,210.13 -16.37,132.74 -4.08,346.49 54.79,498.01 61.94,159.43 122.67,280.07 238.03,403.98 91.42,98.21 170.7,160.61 282.79,224.67 14.18,8.1 28,17.31 44.76,25.54 121.61,59.67 241.17,101.18 399.03,119.71 243.05,28.52 505.64,-27.68 722.36,-159.25 307.59,-186.73 509.45,-501.36 549.42,-859.86 15.42,-138.25 5.65,-338.88 -54.5,-497.06 -68.4,-179.83 -129.59,-282.64 -238.16,-404.1 -47.33,-52.95 -100.87,-102.25 -154.82,-141.36 -56.15,-40.71 -110.34,-79.11 -172.47,-109.55 -189.31,-92.74 -405.84,-146.06 -632.33,-121.91 -77.15,8.22 -187.78,26.37 -263.33,56.33z"/>
  <g id="_2061727007808">
   <path class="fil1" d="M1415.9 1157.91c-22.5,21.57 -9.76,-23.24 -17.05,18 33.03,20.7 13.31,2.45 19.22,-0.85 66.09,-17.45 196.86,-88.25 210.68,12.16 10.24,74.32 -115.3,110.39 -173.76,139.74 -277.57,139.35 -267.82,155.63 -446.31,49.39 -182.9,-108.86 -317.49,-109.54 -206.78,-354.64 32.6,-72.19 75.49,-137.29 112.33,-205.88 71.15,-132.49 142.67,-119.67 172.3,-47.15l0.8 47.39c44.91,-9.08 14.3,2.77 21.3,-21.29l5 -15.71c15.31,0.96 11.9,4.57 10.37,-10.71 16.89,3.91 12.72,7.33 12.72,-9.98l85.34 0.03c0,16.98 -4.04,13.26 12.91,10.17 -2.19,15.59 -5.88,12.21 9.25,11.73l9.75 21.84 -4.51 48.08c41.8,-7.95 19.8,1.64 25.8,-22.21l8.74 -15.34c49.25,-77.63 128.62,-49.89 143.38,43.48 -8.97,12.64 -14.24,-23.55 -7.55,25.92 21.66,-12.34 8.48,0.39 24.77,-18.01 18.72,-21.16 5.64,-3.94 16.63,-29.57 5.99,-27.86 37,-61.53 57.73,-91.97 27.98,-41.09 42.44,-55.88 111.25,-38.84 106.73,58.09 -92.69,269.84 -141.75,348.08 -19.07,30.42 -59.77,80 -72.54,106.14z"/>
   <path class="fil1" d="M1515.47 1507.63c4.87,27.16 96.96,14.84 126.12,14.84 48.06,-3.8 14.43,-0.78 27.55,-11.91 18.87,5.78 17.14,10.97 12.19,-7.58 26.39,-17.6 14.14,-25.31 1.57,-40.68 4.06,-17.94 6.99,-14.23 -10.79,-8.92 -28.16,-17.56 -42.89,-11.57 -81.91,-11.7 -8.43,-0.03 -35.8,-1.1 -42.02,-0.42 -45.27,5 -22.87,-1.82 -35,16.6 -18.47,-4.61 -13.38,-6.79 -8.82,12.58 -36.43,-4.09 -3.61,21.37 -3.2,21.93l-1.27 1.88c1.64,21.61 -4.41,18.3 15.59,13.37zm-221.02 -1220.57c-66.02,27.44 -71.42,35.42 -71.07,156.09 0.23,78.26 1.12,157.52 -0.62,235.68l-81.97 -4.28 1.1 -341.5c19.39,-140.77 135.56,-139.48 284.06,-139.42 140.28,0.07 281.06,-1.25 421.26,-0.3 146.5,0.99 202.21,74.58 201.99,218.7l-0.19 855.13c0.01,148.15 15.97,272.38 -112.11,316.81 -55.48,19.24 -327.18,9.51 -408.26,9.51 -149.76,0 -282.08,28.11 -356.39,-68.83 19.44,-14.32 125.52,-41.81 162.79,-60.4 54.31,-27.08 107.13,-53.47 158.3,-77.29 103.11,-47.98 322.63,13.04 440.43,-23.03 47.35,-64.9 23.43,-309.62 23.43,-416.07 0,-700.62 54.89,-661.2 -223.21,-661.13 -146.48,0.04 -293.2,-0.44 -439.54,0.33z"/>
   <path class="fil1" d="M1050.72 1474.04c2.21,1.7 5.07,4.04 6.6,5.15l26.16 18c50,34.2 22.59,68.98 4.62,117.3l0.38 0.75c-1.69,2.06 -4.04,4.77 -5.13,6.13l-18.64 24.68c-16.14,21.29 -1.61,4.57 -19.33,26.16l-77.91 -13.07c-78.29,-59.72 -278.06,-140.44 -328.9,-206.6 -5.83,-46.03 27.56,-105.63 51.51,-130.82 40.83,-42.96 85.01,-8.84 123.34,13.56 79.11,46.21 162.33,91.02 237.31,138.76z"/>
   <path class="fil1" d="M1463.2 357.23l65.25 -8.73 133.66 1.57c86.8,0 117.19,90.24 -30.22,89.46 -96.78,-0.52 -201.9,29.36 -168.7,-82.3z"/>
   <path class="fil1" d="M1427.36 856.18l33.84 -21.67c-10.99,25.63 2.09,8.41 -16.63,29.57 -16.29,18.41 -3.11,5.67 -24.77,18.01 -6.69,-49.47 -1.41,-13.28 7.55,-25.92z"/>
  </g>
  <path class="fil2" style="mask:url(#id0)" d="M2521.42 750.47l106.9 248.61c51.81,20.05 101.85,44.57 145,72.42 224.37,144.78 -100.47,285.91 -218.81,335.76 -590.88,248.88 -1624.88,361.72 -2191.82,-15.54 -231.6,-154.1 -172.33,-263.47 -28.11,-341.67l88.67 -266.01c-125.25,44.54 -246.46,105.31 -313.54,172.17 -116.2,115.83 -128.09,228.88 -90.89,429.18 273.63,1473.38 2174.34,1794.16 2869.3,429.97 117.14,-229.94 262.65,-653.89 57.33,-852.71 -96.22,-93.18 -228.91,-151.9 -367.89,-194.97 -19.49,-6.04 -38.21,-11.82 -56.15,-17.21z"/>
  <path class="fil1" d="M1340.03 1846.33c-206.81,0.21 -418.31,-30.82 -600.4,-77.66 -127.08,-32.69 -408,-140.73 -464.01,-212.57 -6.85,88.03 96.3,220.31 154.13,267.4 258.63,210.63 755.43,248.68 1090.64,239.95 399.2,-10.39 1175.97,-209.59 1254.74,-528.76 -57.92,8.34 -110.87,43.82 -156.28,62.27 -395.54,160.7 -839.43,248.94 -1278.81,249.37z"/>
  <path class="fil1" d="M687.65 2170.38c15.08,35.09 1.95,19.88 38.37,46.84 15.68,11.6 29.5,18.73 44.85,29.07 37.5,25.26 57.45,38.12 98.39,60.94 364.4,203.16 868.85,229.69 1250.51,22.36 86.46,-46.97 314.12,-192.81 346.3,-283.03 -55.86,10.16 -136.2,51.85 -189.13,70.81 -418.18,149.82 -931.15,201.99 -1364.87,103.97 -72.81,-16.46 -149.9,-45.34 -224.43,-50.97z"/>
 </g>
</svg>
