<?xml version="1.0" encoding="UTF-8"?>
<!DOCTYPE svg PUBLIC "-//W3C//DTD SVG 1.1//EN" "http://www.w3.org/Graphics/SVG/1.1/DTD/svg11.dtd">
<!-- Creator: CorelDRAW -->
<svg xmlns="http://www.w3.org/2000/svg" xml:space="preserve" width="80.8587mm" height="34.6828mm" version="1.1" style="shape-rendering:geometricPrecision; text-rendering:geometricPrecision; image-rendering:optimizeQuality; fill-rule:evenodd; clip-rule:evenodd"
viewBox="0 0 7884.14 3381.75"
 xmlns:xlink="http://www.w3.org/1999/xlink"
 xmlns:xodm="http://www.corel.com/coreldraw/odm/2003">
 <defs>
  <style type="text/css">
   <![CDATA[
    .fil3 {fill:black}
    .fil2 {fill:lime}
    .fil4 {fill:white}
    .fil1 {fill:lime;fill-rule:nonzero}
    .fil0 {fill:white;fill-rule:nonzero}
   ]]>
  </style>
 </defs>
 <g id="Camada_x0020_1">
  <metadata id="CorelCorpID_0Corel-Layer"/>
  <path class="fil0" d="M807.07 2411.93c-1.11,186.8 -52.85,331.38 -155.2,433.73 -102.36,102.35 -243.58,153.53 -423.68,153.53l-228.19 0 0 -1174.54 228.19 0c180.1,0 321.32,51.18 423.68,153.53 102.35,102.35 154.09,246.93 155.2,433.74zm-558.74 439.61c124.17,0 219.53,-41.11 286.09,-123.33 66.56,-82.22 100.95,-187.64 103.19,-316.28 -2.24,-128.65 -36.63,-234.07 -103.19,-316.29 -66.56,-82.22 -161.92,-123.32 -286.09,-123.32l-90.6 0 0 879.22 90.6 0z"/>
  <path id="_1" class="fil0" d="M1226.55 2999.19l-147.65 0 0 -664.45 -137.59 0 67.11 -140.94 218.13 0 0 805.39zm-154.37 -973.19c-14.54,-19.01 -21.81,-39.7 -21.81,-62.08 0,-22.37 7.27,-42.79 21.81,-61.24 14.55,-18.46 36.92,-27.68 67.12,-27.68 30.2,0 52.57,9.22 67.11,27.68 14.54,18.46 21.81,38.88 21.81,61.24 0,22.38 -7.27,42.79 -21.81,61.24 -14.54,18.46 -36.92,27.69 -67.11,27.69 -30.21,0 -52.57,-8.95 -67.12,-26.85z"/>
  <path id="_2" class="fil0" d="M1825.56 2999.19c-109.63,0 -203.59,-36.92 -281.89,-110.75 -78.31,-73.82 -117.45,-168.34 -117.45,-283.56 0,-116.33 39.43,-213.93 118.29,-292.79 78.86,-78.86 176.46,-118.29 292.79,-118.29l394.31 0 0 781.9c0,50.33 -6.44,95.64 -19.3,135.91 -12.86,40.27 -31.04,74.39 -54.53,102.35 -23.49,27.96 -44.75,49.78 -63.76,65.44 -19.01,15.66 -41.95,31.88 -68.79,48.66 -69.36,35.8 -153.81,53.7 -253.37,53.7l-187.92 0 0 -140.94 172.82 0c98.44,0 168.35,-12.31 209.74,-36.92 76.06,-42.5 114.1,-112.98 114.1,-211.41l0 -657.74 -243.3 0c-79.42,0 -142.62,24.61 -189.6,73.82 -46.98,49.22 -70.48,114.67 -70.48,196.32 0,78.31 24.34,140.11 72.99,185.42 48.66,45.3 107.11,67.95 175.34,67.95 73.82,0 138.7,-20.13 194.64,-60.4l0 151.01c-60.41,33.56 -125.28,50.34 -194.64,50.34z"/>
  <path id="_3" class="fil0" d="M2659.48 2999.19l-147.65 0 0 -664.45 -137.59 0 67.11 -140.94 218.13 0 0 805.39zm-154.37 -973.19c-14.54,-19.01 -21.81,-39.7 -21.81,-62.08 0,-22.37 7.27,-42.79 21.81,-61.24 14.55,-18.46 36.92,-27.68 67.12,-27.68 30.2,0 52.57,9.22 67.11,27.68 14.54,18.46 21.81,38.88 21.81,61.24 0,22.38 -7.27,42.79 -21.81,61.24 -14.54,18.46 -36.92,27.69 -67.11,27.69 -30.21,0 -52.57,-8.95 -67.12,-26.85z"/>
  <path id="_4" class="fil0" d="M2800.43 2334.74l300.35 -300.35 0 159.4 226.51 0 0 140.94 -226.51 0 0 345.65c0,39.15 6.44,71.59 19.3,97.32 12.86,25.73 31.6,43.91 56.21,54.53 24.61,10.63 47.82,17.62 69.63,20.97 21.81,3.35 48.94,5.03 81.38,5.03l0 140.94c-128.64,0 -223.72,-24.61 -285.24,-73.83 -61.53,-49.21 -92.29,-130.87 -92.29,-244.97l0 -345.65 -149.33 0z"/>
  <path id="_5" class="fil0" d="M3934.68 2526.02l0 151.02c-42.5,-32.44 -94.52,-48.66 -156.04,-48.66 -52.57,0 -93.41,10.36 -122.49,31.05 -29.09,20.69 -43.63,50.06 -43.63,88.09 0,73.83 54.82,110.75 164.44,110.75l221.48 0 0 -320.48c0,-135.36 -66,-203.03 -197.99,-203.03l-268.47 0 0 -140.94 276.86 0c108.5,0 191.84,26.84 250.01,80.54 58.16,53.69 87.25,130.87 87.25,231.55l0 493.31 -374.18 0c-95.08,0 -170.59,-21.26 -226.51,-63.76 -55.93,-42.51 -83.89,-104.59 -83.89,-186.25 0,-81.65 29.64,-143.73 88.92,-186.24 59.29,-42.5 133.68,-63.76 223.16,-63.76 50.34,0 104.04,8.95 161.08,26.84z"/>
  <path id="_6" class="fil0" d="M4330.67 2680.39l0 -855.73 151.02 0 0 855.73c0,40.27 4.75,72.99 14.26,98.16 9.51,25.17 24.34,43.07 44.47,53.7 20.13,10.63 39.7,17.62 58.72,20.97 19.02,3.35 44.19,5.03 75.51,5.03l0 140.94c-125.28,0 -213.93,-24.05 -265.95,-72.15 -52.02,-48.1 -78.02,-130.32 -78.02,-246.65z"/>
  <path id="_7" class="fil1" d="M4958.22 2999.19l-157.72 0 0 -1174.54 414.45 0c138.7,0 242.17,31.05 310.41,93.13 68.23,62.08 102.35,159.68 102.35,292.8l0 788.61 -157.72 0 0 -810.43c0,-76.06 -23.21,-131.15 -69.63,-165.27 -46.42,-34.12 -107.67,-51.17 -183.73,-51.17l-258.4 0 0 1026.88z"/>
  <path id="_8" class="fil1" d="M7239.83 2193.8l0 140.94 -296.99 0c-32.44,0 -60.4,6.15 -83.89,18.46 -23.49,12.31 -35.24,29.64 -35.24,52.01 0,13.43 2.8,25.45 8.4,36.08 5.59,10.63 12.02,19.3 19.3,26 7.26,6.72 18.45,13.71 33.55,20.97 15.1,7.27 26.85,12.31 35.24,15.1 8.39,2.8 43.91,14.27 106.54,34.4 62.65,20.13 109.07,36.92 139.27,50.33 30.21,13.43 53.41,31.6 69.64,54.53 16.22,22.93 26.56,45.3 31.04,67.12 4.48,21.81 6.72,43.34 6.72,64.6 0,149.89 -102.92,224.84 -308.74,224.84l-290.27 0 0 -140.94 290.27 0c105.15,0 157.72,-27.96 157.72,-83.89 0,-26.85 -15.38,-49.22 -46.14,-67.12 -30.76,-17.89 -68.23,-33 -112.42,-45.3 -44.18,-12.31 -88.37,-26.57 -132.55,-42.79 -44.19,-16.22 -81.66,-42.5 -112.42,-78.86 -30.76,-36.35 -46.14,-81.38 -46.14,-135.07 0,-68.23 26.29,-120.53 78.86,-156.89 52.57,-36.35 116.33,-54.52 191.28,-54.52l296.99 0z"/>
  <path id="_9" class="fil1" d="M7357.28 2334.74l300.35 -300.35 0 159.4 226.51 0 0 140.94 -226.51 0 0 345.65c0,39.15 6.44,71.59 19.3,97.32 12.86,25.73 31.6,43.91 56.21,54.53 24.61,10.63 47.82,17.62 69.63,20.97 21.81,3.35 48.94,5.03 81.38,5.03l0 140.94c-128.64,0 -223.72,-24.61 -285.24,-73.83 -61.53,-49.21 -92.29,-130.87 -92.29,-244.97l0 -345.65 -149.33 0z"/>
  <path id="_10" class="fil1" d="M6229.59 2180.61c189.34,7.79 284,86.31 284,235.55 0,185.99 -121.95,278.98 -365.86,278.98l-68.5 0 0 -128.63 80.19 0c74.62,0 126.41,-11.42 155.36,-34.25 28.96,-22.83 43.44,-60.97 43.44,-114.43 0,-34.53 -12.81,-60.41 -38.43,-77.68 -25.61,-17.26 -58.46,-25.9 -98.56,-25.9 -79.08,0 -141.17,27.85 -186.27,83.53 -45.11,55.69 -67.66,122.52 -67.66,200.47 0,82.42 24.22,149.24 72.67,200.47 48.45,51.23 111.65,76.84 189.61,76.84 70.16,0 127.53,-17.26 172.08,-51.78l100.24 98.57c-76.85,62.36 -167.62,93.55 -272.31,93.55 -126.96,0 -228.31,-37.31 -304.04,-111.93 -75.73,-74.62 -113.6,-170.96 -113.6,-289.02 0,-131.42 37.31,-237.78 111.93,-319.08 74.62,-81.3 176.52,-119.73 305.72,-115.27z"/>
  <path class="fil2" d="M5609.93 44.78c-63.77,25.28 -109.03,42.85 -163.09,75.63 -48.15,29.19 -91.46,61.87 -128.68,96.27 -77.58,71.7 -143.57,157.99 -189.96,253.1 -18.69,38.33 -34.2,78.09 -45.99,118.91 -14.93,51.63 -24.27,95.22 -31.2,151.44 -11.8,95.66 -2.93,249.71 39.49,358.91 44.63,114.89 88.4,201.84 171.53,291.13 65.89,70.78 123.02,115.75 203.8,161.92 10.22,5.84 20.17,12.48 32.25,18.41 87.65,43 173.81,72.91 287.58,86.27 175.15,20.55 364.4,-19.95 520.58,-114.77 221.67,-134.57 367.15,-361.32 395.95,-619.67 11.12,-99.63 4.08,-244.22 -39.28,-358.21 -49.29,-129.6 -93.4,-203.69 -171.64,-291.23 -34.11,-38.15 -72.7,-73.68 -111.58,-101.87 -40.46,-29.34 -79.53,-57.02 -124.3,-78.95 -136.43,-66.83 -292.47,-105.27 -455.7,-87.86 -55.59,5.93 -135.32,19.01 -189.77,40.6z"/>
  <path class="fil3" d="M6780.66 328.07c-67.25,8.32 -114.88,13.86 -174.7,31.75 -53.29,15.94 -102.81,36.41 -146.94,60.03 -91.99,49.25 -176.52,115.33 -244.51,194.72 -27.4,31.99 -52.11,66.15 -73.53,102.22 -27.11,45.64 -46.87,85.01 -67.47,137.01 -35.06,88.51 -64.89,237.96 -51.49,352.9 14.11,120.93 34.33,214.91 91.6,320.95 45.39,84.03 88.82,141.23 154.57,205.44 8.32,8.12 16.18,16.95 26.26,25.61 73.09,62.89 148.01,112.92 253.45,153.96 162.32,63.2 353.29,71.53 526.17,19.73 245.35,-73.53 440.79,-254.11 532.56,-493.92 35.39,-92.47 64.61,-232.44 51.51,-352.19 -14.9,-136.15 -38.64,-217.93 -91.67,-321.07 -23.11,-44.96 -51.17,-88.52 -81.32,-125.13 -31.4,-38.11 -61.84,-74.27 -99.19,-106.37 -113.8,-97.81 -253.41,-173.33 -413.76,-197.28 -54.62,-8.15 -134.09,-15.47 -191.51,-8.38z"/>
  <g id="_2076936963936">
   <path class="fil3" d="M5687.36 824.27c-16.22,15.54 -7.04,-16.75 -12.3,12.97 23.81,14.93 9.59,1.76 13.86,-0.6 47.62,-12.58 141.86,-63.6 151.84,8.77 7.37,53.56 -83.1,79.55 -125.24,100.7 -200.03,100.42 -193.01,112.15 -321.64,35.59 -131.81,-78.45 -228.81,-78.94 -149.02,-255.57 23.5,-52.03 54.4,-98.94 80.95,-148.37 51.28,-95.48 102.82,-86.24 124.17,-33.98l0.58 34.15c32.36,-6.54 10.31,2 15.35,-15.34l3.61 -11.32c11.04,0.69 8.57,3.29 7.47,-7.72 12.17,2.82 9.17,5.28 9.17,-7.19l61.5 0.02c0,12.24 -2.91,9.57 9.3,7.33 -1.58,11.23 -4.23,8.79 6.67,8.45l7.03 15.74 -3.26 34.65c30.13,-5.72 14.27,1.19 18.59,-16.01l6.3 -11.05c35.49,-55.95 92.69,-35.96 103.34,31.33 -6.46,9.12 -10.27,-16.97 -5.45,18.68 15.61,-8.89 6.11,0.28 17.85,-12.98 13.48,-15.25 4.07,-2.85 11.98,-21.31 4.31,-20.08 26.66,-44.35 41.61,-66.28 20.16,-29.61 30.58,-40.27 80.18,-27.99 76.91,41.87 -66.8,194.46 -102.16,250.85 -13.75,21.93 -43.08,57.65 -52.27,76.49z"/>
   <path class="fil3" d="M5759.11 1076.3c3.51,19.58 69.88,10.7 90.88,10.7 34.64,-2.74 10.4,-0.56 19.86,-8.58 13.59,4.16 12.34,7.91 8.79,-5.46 19.01,-12.69 10.19,-18.24 1.12,-29.32 2.93,-12.93 5.04,-10.26 -7.77,-6.43 -20.29,-12.66 -30.91,-8.34 -59.03,-8.44 -6.07,-0.02 -25.8,-0.79 -30.29,-0.29 -32.62,3.6 -16.48,-1.32 -25.22,11.96 -13.31,-3.32 -9.64,-4.9 -6.36,9.06 -26.26,-2.93 -2.6,15.41 -2.3,15.81l-0.93 1.37c1.19,15.57 -3.17,13.18 11.24,9.63zm-159.28 -879.62c-47.57,19.77 -51.46,25.53 -51.22,112.48 0.17,56.4 0.81,113.53 -0.44,169.85l-59.08 -3.09 0.79 -246.1c13.98,-101.45 97.7,-100.53 204.71,-100.48 101.1,0.05 202.55,-0.9 303.59,-0.21 105.58,0.7 145.72,53.74 145.57,157.61l-0.14 616.27c0.01,106.76 11.51,196.3 -80.79,228.31 -39.99,13.87 -235.8,6.86 -294.22,6.86 -107.93,0 -203.29,20.25 -256.84,-49.61 14.01,-10.32 90.46,-30.13 117.32,-43.53 39.14,-19.51 77.2,-38.53 114.09,-55.69 74.3,-34.58 232.51,9.4 317.4,-16.6 34.13,-46.77 16.89,-223.13 16.89,-299.86 0,-504.91 39.55,-476.51 -160.86,-476.45 -105.56,0.02 -211.3,-0.32 -316.77,0.23z"/>
   <path class="fil3" d="M5424.18 1052.09c1.59,1.23 3.66,2.92 4.76,3.71l18.85 12.97c36.04,24.65 16.28,49.72 3.33,84.54l0.27 0.55c-1.22,1.48 -2.92,3.44 -3.7,4.42l-13.44 17.78c-11.63,15.35 -1.16,3.3 -13.93,18.86l-56.15 -9.42c-56.42,-43.04 -200.38,-101.21 -237.03,-148.89 -4.2,-33.17 19.86,-76.12 37.12,-94.28 29.43,-30.96 61.26,-6.37 88.89,9.77 57.02,33.3 116.99,65.59 171.02,99.99z"/>
   <path class="fil3" d="M5721.45 247.23l47.03 -6.28 96.33 1.13c62.55,0 84.45,65.04 -21.78,64.47 -69.75,-0.38 -145.5,21.15 -121.57,-59.32z"/>
   <path class="fil3" d="M5695.62 606.81l24.39 -15.61c-7.92,18.47 1.5,6.06 -11.98,21.31 -11.74,13.26 -2.24,4.09 -17.85,12.98 -4.82,-35.65 -1.01,-9.57 5.45,-18.68z"/>
  </g>
  <g id="_2076936966384">
   <path class="fil2" d="M7199.86 1225.29c2.52,-7.91 -2.81,-22.36 -21.68,-22.61 -102.73,-1.38 -214.94,0.1 -318.18,0.1 -10.32,0 -331.69,-1.11 -339.08,0.4 -11.82,2.42 -17.09,16.9 -10.64,26.02 0.24,0.34 0.98,1.16 1.25,1.44 0.2,0.2 0.47,0.45 0.67,0.64 9.9,9.12 46.33,5.73 65.16,5.73 56.44,0 600.1,1.93 609.88,-1.18 4.81,-1.53 4.82,-1.68 7.62,-4.42l5 -6.13zm-374.78 -93.88zm-307.01 -79.75l307.01 79.75zm-307.01 -79.75l0.17 -0.71c4.34,6.27 20.79,3.7 35.47,3.7l251.09 -0.05c9.25,0.04 14.94,1.53 17.51,-3.44l0.04 0.85 5.78 -0.55c2.21,-6.3 2.4,-1.33 2.97,-7.62l0.92 -1.79c0.13,-0.42 1.57,-2.8 0.52,-8.64 -2.02,-11.19 -12.61,-12.86 -23.78,-12.87 -34.47,-0.02 -284,-1.74 -290.8,1.13 -1.83,0.77 -5.21,3.64 -6.51,4.99 -2.2,2.29 -3.3,4.31 -3.48,9.35 -0.31,8.51 1.26,14.83 10.11,15.65zm423.57 -33.81l-4.11 -0.34c-2.22,3.59 -0.96,1.43 -3.12,3.54 -3.98,3.87 -2.23,1.7 -3.12,4.82 -3.05,-1.33 -2.57,-1.72 -1.28,1.34 -2.94,-1.25 -2.56,-1.75 -1.37,1.25 -4.68,0.07 -4.31,0.66 -8.67,4.43 -2.74,2.36 -4.36,4.2 -6.74,5.42 -4.89,1.55 -12.9,9.02 -17.24,12.62l-18.74 15.48c-4.5,4.89 -4.98,11.26 -3.41,19.59 2.18,5.17 12.25,11.62 15.58,14.22 0.98,0.76 2.06,2.08 3.15,3.15l10.32 8.16c3.43,2.11 -1.97,-0.43 3.47,1.42l0.25 -1.06c2.7,5.12 2.38,3.47 7.04,7.28l25.23 19.37 -0.43 -0.63c0.26,0.32 0.63,0.42 0.75,1l2.3 3.22c4.89,0.59 10.4,1.54 14.59,-0.92 2.08,-1.22 6.63,-6.43 7.24,-9.41 1.7,-8.22 -1.09,-11.64 -5.01,-15.28l-39.04 -33.27c-4.35,-3.32 -1.47,1.09 -3.96,-5.15 2.24,-3.33 10.56,-9.97 15.05,-13.81l13.32 -11.72c0.23,-0.25 0.51,-0.59 0.72,-0.82l1.46 -1.81c1.76,-0.53 17.98,-11.04 17.47,-21.6 -0.38,-8.05 -8.19,-14.8 -15.28,-14.77 -1.75,0 -3.19,0.03 -4.5,0.87 -2.82,1.81 -1.07,0.43 -1.93,3.41zm168.91 18.82c0.46,4.74 1.38,5.04 4.41,7.31 2.81,2.11 3.99,3.55 7.47,4.4 -0.93,2.8 -1.4,2.4 1.34,1.3 -1.2,3 -1.4,2.29 1.55,1.14 0.63,1.7 -2.74,2.13 2.26,1.49 -0.93,2.85 -1.39,2.37 1.43,1.38 -1.08,2.75 -1.49,2.33 1.25,1.24 1.27,3.31 -0.75,0.01 1.41,2.67 1.39,1.71 1.41,1.44 2.76,2.59 3.47,2.98 0.89,2.39 6.21,2.84l-0.67 3.22 3.3 -0.7c-0.72,2.42 -1.44,2.15 0.84,1.82 -0.18,2.05 -0.62,1.61 1.41,1.24 -0.32,2.27 -0.7,1.74 1.57,1.04 0.99,1.71 -0.08,0.91 1.68,2.41 1.69,1.44 0.4,0.65 3.27,1.72 2.08,4 -0.04,2.6 5.09,4.31 -1.76,-2.32 -1.3,-0.7 -2.59,2.64l-13.13 10.54c-1.48,1.66 -0.66,0.71 -1.57,2.39 -3.24,0.68 -1.69,-0.93 -2.83,2.44 -2.66,1.15 -8.89,6.68 -11.11,8.59 -2.38,2.04 -3.28,2.63 -5.88,4.64 -2.77,2.12 -3.74,2.57 -4.69,5.84l-3.39 0.46 -0.24 3.79c-3.09,0.89 -3.41,0.11 -4.23,4.64 -0.62,3.43 -0.23,6.8 0.21,10.21l4.01 1.79c2.36,6.21 8.28,6.5 17.35,6.67 3.04,-0.35 1.9,0.64 4.63,-1.37 2.99,-2.2 1.44,-2 2.02,-3.23l2.74 0.28 0.22 -2.58c0.01,0 21.67,-13.39 23.05,-19.11l27.33 -21.18c2.3,-1.76 2.01,-1.58 4.13,-3.67l2.83 -2.72c0.2,-0.21 0.49,-0.55 0.66,-0.74 2.69,-3.03 3.48,-11.74 1.95,-15.78 -1.44,-3.82 0.5,-2.08 -2.77,-3.06 0.97,-2.66 1.39,-2.22 -1.29,-1.3 0.92,-2.65 1.39,-2.22 -1.29,-1.39 0.88,-2.53 1.35,-2.15 -1.2,-1.36 -0.59,-1.86 1.14,-1.09 -1.68,-3.68 -3.56,-3.27 0.24,-1.57 -4.97,-1.43 -1.09,-4.15 -0.72,-3.64 -6.7,-7.98 -7.42,-5.38 -19.02,-17.33 -24.62,-18.61 0.53,-2.26 1,-1.85 -1.26,-1.4 0.48,-2.28 0.84,-1.8 -1.41,-1.08 0.6,-2.55 1.03,-2.06 -1.49,-1.27 0.81,-2.52 1.29,-2.12 -1.24,-1.37 0.76,-2.62 1.09,-2.09 -1.45,-1.07 -0.95,-3.34 1.28,-0.69 -1.32,-2.79 -1.95,-1.58 -0.62,-0.9 -3.87,-1.25 -1.02,-3.73 0.75,-0.2 -1.15,-2.91 -0.9,-1.29 -1.66,-1.85 -2.69,-2.6 -1.91,-1.38 -3.39,-2.08 -6.57,-2.49 0.69,-2.58 1.11,-2.12 -1.42,-1.23 -0.98,-2.02 3.79,-2.91 -3.49,-1.33 -4.19,0.82 -8.06,2.04 -9.93,2.65l-5.24 1.09 -0.7 4.61c-4.22,1.13 -4.19,1.19 -3.36,14.62 4.44,3.77 -3.95,-1.53 3.07,0.63zm-106.62 -13.22l0.01 3.32c1.19,5.39 0.39,0.68 2.48,2.03 -1.86,13.26 4.89,11.82 2.93,22.44l22.65 86.57c1.48,5.18 3.29,11.63 4.88,16.99 2.46,8.26 5.28,15.28 15.19,16.73 8.31,1.22 8.3,-2.55 8.87,-3.64 6.18,-1.21 9.37,-8.06 8.24,-17.56l-4.11 -15.79c-1.63,-4.65 -0.59,-2.55 -3.2,-4.01l-0.33 -7.82 -5.22 -20.09c-1.63,-2.02 -0.53,-0.6 -2.14,-1.7 1.57,-10.27 -11.03,-44.67 -14.48,-61.95l-4.15 -8.06 1.12 -3.56c0.1,-2.44 1.13,-0.96 -0.09,-4.47 -2.27,-6.56 0.34,-0.95 -2.7,-3 0.79,-7.06 -1.45,-10.22 -3.02,-15.87 -2.16,-7.83 -1.07,-9.22 -6.62,-13.84 -10.3,-8.56 -25.52,-2.54 -26.16,9.87 0.78,5.02 0.21,7.08 1.91,11.77 1.23,3.39 1.04,2.39 1.83,6.03 1.71,7.85 0.32,4.03 2.11,5.61zm250.2 277.7l-811.83 -0.1 -0.24 -482.99 175.65 0.26c0.02,4.83 -0.21,1.65 1.76,2.17 -1.19,2.88 -1.31,2.07 1.61,1.09 -0.78,2.73 -1.31,2.06 1.52,2.06l1.31 0.19c0.19,3.77 -0.31,1.19 0.82,3.2 2.03,3.62 -4.11,-1.06 1.82,0.72 -0.05,5.73 16.21,33.21 21.44,36.53 4.58,2.91 7.51,3.87 12.81,1.55 11.17,-4.88 39.09,-22.94 48.05,-27.11 6.59,-0.22 6.73,0.38 11.71,4.23l32.18 20.19c4.23,2.22 4.9,1.24 12.78,5.63 0.25,0.14 0.71,0.4 0.93,0.53 0.21,0.12 0.8,0.85 0.96,0.57 0.17,-0.28 0.67,0.37 0.98,0.59 1.53,24.46 -4.51,60.96 7.98,69.05 7.6,4.92 61.03,2.55 74.46,2.55 7.04,0 61.43,1.14 66.64,-0.95 1.84,-0.73 1.96,-1 3.22,-2.17l2.41 -2.79c6.64,-8.01 4.22,-15.53 4.22,-32.84 0,-12.09 -2.17,-30.41 2.93,-36.05 3.29,-0.11 16.63,-7.33 20.74,-9.64 4.05,-2.29 17.31,-10.76 19.76,-11.25 2.86,0.52 2.55,1.3 1.88,-1.37 2.32,0.62 1.89,1.08 1.41,-1.26 11.32,0.24 1.09,-11.96 25.86,4.1 5.18,3.35 21.46,14.05 26.68,13.83 1.49,3.96 17.65,18.05 32.67,-8.68 4.49,-7.99 6.64,-7.41 6.59,-13.11 1.72,-1.13 2.74,2.76 1.38,-2.72 2.45,0.59 2,1.02 1.24,-1.38 1.57,-0.9 2.99,2.8 1.22,-2.56 3.62,-1.65 7.83,-10.36 8.15,-14.39 26.1,1.52 60.02,-0.09 87.18,-0.2 14.52,-0.06 80.36,-1.77 88.63,0.59l0.5 481.94z"/>
   <path class="fil2" d="M7345.56 690.01c-0.89,2.75 -1.31,2.28 1.39,1.23 0.2,2.21 -2.69,2.31 2.68,1.37 1.76,3.28 1.94,2.66 5.38,4.94 2.43,1.62 3.56,2.5 6.06,4.5 3.56,2.88 6.67,7.23 10.86,8.76 0.4,2.86 0.21,1.6 0.86,3.18 0.29,0.71 0.97,2.06 1.4,2.57 3.19,3.82 -0.63,1.41 4.08,2.46 -0.42,6.39 4.27,11.22 6.34,18.31 5.7,19.6 3.52,46.99 3.52,67.42l0.1 473.1c0,28.92 4.14,88.96 -6.63,111.97l-8.98 14.2c-4.08,5.67 -5.59,7.98 -11.12,12.46l-13.27 10.27c-3.06,-1.09 -3.07,-2.06 -1.75,0.99 -2.68,-1.14 -2.23,-1.56 -1.37,1.23 -10.64,-0.36 -6.23,3.99 -30.26,4.4 -11.35,0.2 -22.82,-0.01 -34.18,-0.01l-882.1 0.05c-18.87,0 -23.96,1.69 -40.02,-3.63l-11.82 -5.33c-9.14,-4.68 -16.26,-11.37 -22.8,-19.44 -6.44,-7.96 -8.03,-15.76 -11.94,-20.95 0.31,-3.49 0.91,-0.78 -0.53,-4.54 -1.37,-3.6 -0.29,-0.98 -2.15,-2.81l-0.98 -594.27c0,-33.16 -2.69,-36.75 10.61,-62.61l3.62 -5.98c0.1,-0.5 0.43,-0.57 0.65,-0.85 4.4,-5.99 14.71,-15.64 21.67,-19.57 5.02,-2.85 4.26,-1.22 8.45,-5.95l-0.15 1.1c6.32,-0.78 9.04,-3.61 16.33,-2.66 16.23,1.78 48.93,-0.22 67.17,-0.23 21.92,0 43.82,-0.02 65.74,-0.02 20.33,0 121.85,-2.9 131.32,2.14l-0.29 14.16c-3.24,1.74 -13.22,7.72 -16,8.01l-3.45 1.06c-0.33,0.12 -0.67,0.26 -0.99,0.4l-14.34 8.02c-3.64,2.36 -1.22,0.77 -4.94,2.88 -3.07,1.75 -8.95,4.78 -11.12,6.18 -12.62,8.14 -1.81,25.51 1.56,31.27 3.32,5.67 12.1,23.8 14.79,25.84 -18.84,-1.55 -173.05,-1.8 -179.63,1.69 -2.87,-1.13 -2.66,-1.9 -1.7,1.05 -2.54,-0.86 -2.13,-1.37 -1.53,1.22 -2.19,-0.72 -1.84,-1.24 -1.52,0.98 -2.16,-0.34 -1.69,-0.69 -0.98,1.44 -3.8,1.55 -3.02,-0.67 -4.26,5.91l-0.23 499.67c0,10.88 -2.36,26.69 4.67,29.56 -0.93,2.51 -1.46,2.2 1.09,1.38 -0.86,2.44 -0.88,1.53 1.82,0.91 1.76,4.08 3.56,3.77 9.39,4.05l38.23 -0.07c16.64,0 33.3,0.02 49.95,-0.01l704.63 0.09c16.64,0.01 55.87,3.5 63.39,-4.08 8.01,-8.07 5.8,-14.81 5.82,-27.9l0 -453.38c0,-28.37 6.84,-58.79 -13.87,-62.14 -9.59,-1.55 -159.67,-0.44 -174.88,-0.59 0.65,-11.07 24.04,-33.93 20.73,-47.25 -1.96,-7.9 -12.21,-13.13 -18.61,-16.93 -5.78,-3.41 -19.04,-11.27 -23.69,-11.62 -2.06,-0.55 -0.04,0.2 -3.07,-1.22 -1.29,-0.6 -2.43,-1.26 -3.4,-1.83 -2.53,-1.47 -1.95,-1.9 -4.9,-2.8 0,-3.53 0.93,-3.18 -2.2,-1.89 1.18,-2.95 1.63,-2.51 -1.35,-1.36 0.54,-5.11 0.86,-10.85 3.2,-14.28 2.5,-1.73 128.26,-0.56 142.33,-0.55 31.1,0.02 76.64,-1.01 106.5,0.02 25.88,0.9 20.58,4.86 30.68,4.32z"/>
   <path class="fil2" d="M6959.46 650.42c0.2,-2.32 0.44,-1.81 -0.04,-4.38 -0.65,-3.52 -0.11,-1.21 -1.15,-2.36 0.61,-5.85 -3.95,-16.32 -6.66,-22.39 -2.44,-5.44 -8.6,-14.85 -9.66,-18.37 0.66,-3.64 1.92,-3.74 -1.25,-2.38 1.07,-2.82 1.5,-2.36 -1.33,-1.31 1.04,-2.69 1.61,-2.31 -1.17,-1.59 -0.18,-5.95 -0.05,-4.19 -3.95,-5.18 0.87,-2.47 1.37,-2.1 -1.15,-1.42 0.68,-2.42 1.1,-1.97 -1.32,-1.28 0.67,-2.41 1.15,-1.98 -1.29,-1.44 0.62,-2.21 1.09,-1.82 -1.13,-1.39 0.41,-2.22 0.82,-1.75 -1.4,-1.22 0.52,-2.25 0.98,-1.8 -1.27,-1.49 0.45,-2.03 0.88,-1.65 -1.15,-1.27 -1.84,-2.09 3.69,-1.92 -2.51,-1.47 0.08,-1.93 0.53,-1.49 -1.41,-1.25 0.21,-2.03 0.64,-1.6 -1.37,-1.18 -2.35,-4.84 -5.8,-5.97 -10.68,-9.32 -3.71,-2.55 -8.8,-6.32 -13.74,-5.71 -2.59,-4.2 -9.37,-5.74 -13.95,-6.9 -23.76,-6.02 -12.56,-4.53 -37.66,-4.67 -4.05,-0.02 -10.96,-0.77 -14.41,0.69 -6.84,2.92 -1.21,-0.39 -3.12,2.93 -15.34,-3.73 -46.4,17.7 -58.77,29.2l-4.03 3.83c-9.58,8.53 -18.91,25.6 -18.73,31.11 -1.9,0.74 -3.33,-3.01 -1.35,2.57 -4.9,4.06 -7.11,16.27 -6.53,21.11 -0.82,0.87 -4.06,-4.61 -1.41,4.97 -0.89,1.47 0.12,-2.28 -1.37,3.45 -0.9,3.44 -0.04,-0.67 -0.49,2.54l-0.22 18.49c0.06,4.42 0.31,8.83 1.04,13.19 0.34,2.02 0.62,3.73 1.48,5.33 1.6,2.96 1.32,1.79 2.51,2.65 -2.8,10.11 10.76,31.4 16.62,39.93l5.06 6.73c9.74,11.9 15.5,16.11 27.73,23.72 9.41,5.87 5.67,5.09 10.77,4.75 0.5,0.43 0.22,0.81 2.89,1.73 5.56,1.93 -0.86,0.31 2.33,-0.26 -1,2.81 -1.43,2.37 1.34,1.28 1.13,1.04 -4.75,3.56 4.65,1.64 1.48,1.98 -0.15,0.65 2.18,2.28 0.34,0.24 2.54,1.33 2.97,1.45 3.93,1.12 3.92,0.8 6.93,-0.09 9.26,6.98 43.49,5.63 50.35,1.02 0.23,-0.17 0.71,-0.26 0.88,-0.78 0.18,-0.53 0.59,-0.54 0.89,-0.82 5.66,-0.27 10.77,-2.55 15.18,-4.47 2.44,-1.05 4.89,-2.07 7.39,-3.18 3.87,-1.72 3.1,-2.06 6.45,-3.34 12.6,-3.33 37.34,-29.01 41.89,-40.21 1.24,-3.5 5.45,-11.36 7.81,-16 1.8,-3.57 5.35,-14.54 5.05,-18.78 0.98,-1.02 0.79,-0.06 1.38,-3.38 0.36,-2.01 0.1,-2.71 -0.04,-4.45 1.58,-1.19 2.41,0.69 3.37,-7.25 0.79,-6.49 2.11,-21.45 -3.45,-25.62zm-29.02 -150.3c5.77,0.59 9.98,6.77 17.08,6.95 -0.73,2.52 -1.22,2.14 1.26,1.32 -0.91,2.67 -1.15,1.78 1.92,1.73l-1.3 -0.12c1.73,5.78 4.19,5.56 14.73,13.3 1.63,1.2 0.82,0.46 2.34,1.73 3.99,3.3 1.72,2.57 7.4,5.67 10.02,5.45 14.19,1.77 23.5,-3.82 0.25,-0.16 0.57,-0.36 0.83,-0.52l15 -8.44c5.1,-3.01 17.1,-9.3 20.76,-12.27l37.95 64.68c1.37,1.85 0.1,0.34 2.2,2.48l2.04 1.64 -0.85 -0.43 2.64 6.26c2.15,4.92 1.38,1.57 1.88,6.77l-47.2 28.8c-1.42,1.88 -2.06,3.38 -2.61,6.15 -1.2,5.95 3.55,34.08 3.05,47.45 -0.52,13.91 -4.82,36.58 -2.67,44.66 0.12,0.44 0.2,0.74 0.33,1.15 2.19,6.65 7.54,8.31 13.11,11.23 0.27,0.15 0.61,0.31 0.88,0.46 0.25,0.14 0.59,0.32 0.84,0.47 0.24,0.14 0.58,0.33 0.81,0.48l36.36 21.3c-1.82,4.68 -8.15,15.16 -10.61,17.78 -1.1,0.93 0.66,-4.63 -4.08,4.23 -2.01,3.76 -0.86,0.65 -0.8,4.07 -3.72,1.23 -3.08,-3.05 -2.61,3.97 -0.98,0.73 -0.71,-0.07 -3.06,2.61l-18.34 31.56c-2.87,4.96 -5.36,6.75 -4.88,11.8 -1.37,0.35 -5.37,1.76 -4.16,2.64 -6.35,-2.85 -23.72,-14.35 -29.66,-15.34 -0.55,-0.74 2.4,-1.67 -3.44,-1.54 1.2,-2.99 1.62,-2.54 -1.35,-1.27 -0.67,-0.91 4.3,-3.05 -3.68,-1.47 -1.26,-3.61 3.3,-2.97 -3.93,-2.66l-3.62 -3.11c-8.4,-4.7 -15.55,1.98 -21.51,6.8 -4.25,3.43 -4.59,3.44 -5.36,6.43 -3.84,0.38 -3.69,0.78 -6.62,2.54 -1.1,0.66 -2.06,1.23 -3.01,2.25 -2.66,2.84 -0.21,-2.36 -1.4,2.49 -4.11,0.37 -16.47,7.65 -20.27,11.62 -6.81,-1.66 -4.59,-0.81 -5.2,2.63l-5.24 1.27c-2.8,0.26 -5.06,1.31 -8.7,2.56 -2.18,0.75 -2.79,0.75 -4.76,1.99 -3.16,1.99 -1.89,1.42 -2.92,2.63 -2.41,0.43 -3.46,-1.56 -3.88,4.03 -3.65,1.49 -2.26,-0.8 -2.68,3.89 -3.24,5.4 -2.18,46.65 -1.47,56.35 -17.82,-0.44 -80.65,2.31 -92.59,-1.01l-0.33 -42.41c0.03,-10.99 -0.91,-9.49 -3.16,-11.05 -4.11,-15.79 -14.4,-9.85 -37.14,-22.77l-30.84 -20.34c-0.21,-0.18 -0.53,-0.4 -0.74,-0.58l-2.08 -1.79c-2.64,-2.43 -8.51,-7.89 -13.25,-7.36 -4.51,0.49 -2.63,-0.02 -5.19,2.45l0.68 -0.9c-3.83,0.35 -1.48,-0.36 -5.48,1.1l-1.82 0.93c-3.3,1.77 -1.19,1.85 -5.26,2.84 -3.32,-0.21 -3.27,-1.26 -2.1,1.55 -2.49,-0.94 -2.04,-1.37 -1.41,1.2 -1.6,-0.08 -4.58,-1.28 -3.54,1.49l-3.06 -0.15 -0.23 2.34c-5.34,0.43 -4.87,0.91 -8.51,3.21 -1.97,1.23 -1.77,0.75 -3.38,2.05 -2.89,2.33 -1.15,0.69 -2.27,2.91 -6.42,0.35 -4.41,2.88 -12.94,4.02 -1.13,-2.77 -2.18,-4.37 -3.64,-6.82 -2.96,-4.99 0.27,-2.57 -4.32,-4.49 -0.22,-5 0.09,-5.42 -3.88,-6.74 -0.17,-3.88 0.25,-3 -1.34,-5.62 -2.35,-3.84 -0.32,-0.85 -2.72,-2.18 0.43,-5.59 0.38,-2.92 -2.59,-4.01 -0.2,-3.77 0.21,-6.33 -3.84,-6.55 0.07,-5.3 -0.68,-4.78 -3.88,-6.65 0.1,-5.49 -0.46,-4.64 -3.78,-6.89l-1.88 -6.32c-0.2,-0.35 -0.83,-1.32 -1.03,-1.65 -3.15,-5.14 0.66,-2.17 -4.12,-4.58 -0.93,-7.16 -7.79,-10.77 -6.4,-17.62 2.14,-4.51 22.81,-11.6 28.04,-18.56 3.23,-1.01 14.9,-7.71 17.38,-10.89 7.98,-10.23 2.06,-13.48 2.12,-23.21 1.19,-6.51 -1.35,-31.74 -0.72,-42.53 1.01,-17.18 6.62,-25.66 1.93,-33.31 -1.68,-2.72 -2.65,-2.69 -2.79,-2.81 1.06,-2.83 1.33,-2.21 -1.45,-1.12 0.92,-2.57 1.05,-1.81 -1.59,-1 0.95,-2.91 1.61,-2.68 -1.23,-1.45l-10.26 -6.91c-3.77,-2.2 -6.98,-4.09 -10.81,-6.13 -22.62,-12.12 -23.55,-12.01 -18.99,-19.94 0.14,-0.24 0.36,-0.56 0.51,-0.8l27.38 -47.48c3.4,-6.06 8.35,-12.11 10.21,-17.92l4.36 -8.86c5.87,2.05 15.14,8.4 21.88,11.7 1.76,0.87 0.91,0.6 3.51,1.37 2.13,0.98 2.74,1.71 5.25,2.92 3.16,1.54 2.79,1.17 5.31,2.65 2.6,1.53 6.48,3.81 8.76,5.57 1.91,2.1 -3.36,4.1 4.48,1.99 2.38,1.81 -4.17,1.82 4.64,1.54 4.37,-0.15 1.77,0.48 3.41,-1.62 5.45,1.78 1.78,0.48 2.75,-1.2 6.3,0.74 5.68,-1.75 10.06,-5.49 9.46,-8.06 19.47,-14.84 30.86,-20.35l14.98 -7.2c4.15,-1.78 6.04,-2.44 10.7,-4.29 0.36,-0.15 5.07,-2.33 5.22,-2.43 3.44,-2.41 1.06,3.2 2.95,-3.63 4.24,-1.53 3.85,-2.37 3.5,-7.19 3.44,-2.34 2.73,-6.86 2.68,-11.87 -0.1,-9.73 -1.17,-35.96 0.97,-42.3l91.64 -0.58c0.4,15.3 -1.28,40.84 0.63,54.73 1.01,7.39 6.46,10.74 13.64,13.53 5.07,1.97 16.72,7.18 21.14,7.66z"/>
   <path class="fil2" d="M6621.07 1592.27l454.08 0.14 0.09 124.51c-0.92,0.2 -1.42,0.05 -1.62,0.49 -1.3,2.92 -322.58,0.75 -338.5,0.54 -36.87,-0.49 -77.32,2.61 -113.86,0.28l-0.2 -125.96z"/>
   <path class="fil2" d="M6964.89 1560.58l-234.03 0.49c-0.26,-13.13 1.19,-29.11 0.96,-39.96 -0.25,-11.64 -1.02,-26.26 -1.15,-39.57 -0.16,-17.76 -3.94,-14.9 26.8,-14.9l124.88 0c26.26,0 57.75,1.56 83.35,-0.24l-0.81 94.18z"/>
   <path class="fil2" d="M6881.07 590.41c0.63,0.96 -0.84,1.33 3.45,3.42 4.76,2.32 1.93,0.73 4.39,0.84l6.28 4.13c1.47,2.87 1.1,3.3 4.8,3.07 1.43,5.28 -0.25,0.75 6.56,7.86 1.04,1.09 2.88,3.42 3.69,4.18 2.89,2.72 0.12,1.4 4.09,2.47 0.52,4.58 2.59,5.68 5.27,10.73l2.55 5.44c2.16,4.16 0.59,-0.19 2.21,4.16 6.72,18.02 7.21,41.96 -0.2,60.6 -0.55,1.37 -1.35,2.47 -2.51,5.02 -1.84,4.06 -3.47,6.9 -3.85,10.44 -2.35,-0.45 -1.81,-0.79 -1.02,1.52 -2.89,-1.08 -2.38,-1.48 -1.32,1.39l-15.15 16.25c-3.37,0.28 -4.44,-0.44 -4.36,3.56 -5.43,0.22 -5.26,0.17 -6.76,4.46 -2.11,0.64 -7.81,3.55 -11.2,5.07 -4.97,2.23 -8.78,1.76 -14.42,4.01 -9.57,3.82 -23.09,0.05 -32.91,0.89 1.37,-3.08 1.45,-1.98 -2.18,-1.78l-1.38 0.2 -2.32 -1.33c-0.36,-0.19 -0.71,-0.37 -1.09,-0.57l-7.46 -3.24c-4.98,-2.06 -5.26,-2.86 -9.48,-4.33 -2.75,-4.41 -13.04,-8.26 -22.76,-21.11 -3.72,-4.93 -2.68,-5.6 -6.85,-8.16 -0.52,-2.56 -2.35,-4.99 -4.34,-9.36 -17.77,-38.91 3.9,-71.67 4,-77.22 2.51,-1.01 1.24,-0.17 3.16,-2.13l6.94 -8.82c6.75,-7.44 12.71,-12.4 21.81,-17.59 7.51,-4.28 9.83,-2.38 12.64,-7.35 7.64,2.22 9.21,-1.15 15.5,-2.46 4.25,-0.89 12.15,-0.69 16.66,-0.53 9.26,0.32 20.96,5.62 27.57,6.25z"/>
  </g>
  <path class="fil4" d="M6167.69 1327.24c-138.38,-13.09 -537.3,-173.24 -688.79,-250.5 -44.84,-22.87 -51.03,-28.44 -87.88,6.22 -6.02,65.16 49.48,74.37 100.33,98.08 132.88,61.94 294.81,127.27 434.8,169.46 221.16,66.64 385.81,110.65 613.35,141.35l41.48 9.95c1.45,0.56 3.81,1.49 5.55,2.55 -58.26,20.31 -126.51,44.48 -191.19,63.22 -87.78,25.44 -134.86,53.84 -192.24,28.08 -117.78,-52.88 -230.97,-109.4 -336.73,-171.54 -29.43,-17.29 -134.68,-89.27 -162.89,-81.24 -34.17,9.73 -40.88,49.83 -15.98,74.8 41.55,41.64 393.88,215.64 409.08,227.74 -55.16,13.97 -306.24,72.3 -353.09,38.89 -46.85,-33.42 -175.86,-151.79 -216.68,-195.33 -41.12,-43.87 -94.51,-98.85 -132.37,-149.04 -22.14,-29.35 -107.07,-158.15 -142.77,-78.05 -18.93,42.49 63.07,117.3 103.49,165.25 47.63,56.5 142.06,162.81 200.49,211.48 11,9.17 63.81,54.13 71.22,67.03 -59.22,4.78 -135.9,-14.94 -184.58,1.86 -33.4,63.06 4.71,78.73 70.52,83.29 60.13,4.17 118.93,3.56 179.05,0.16 89.97,-5.09 121.02,67.16 240.77,117.18 -35.99,22.18 -149.53,23 -200.04,26.76 -29.42,2.19 -72.83,0.58 -86.21,24.9 -78.41,142.47 373.61,3.5 460.28,27.27 163.33,44.79 163.09,63.93 368.65,90.4 286.92,36.95 577.94,10.43 863.52,-26.83 116.51,-15.2 78.87,-97.24 11.55,-90.5 -306.13,30.66 -531.46,74.14 -862.31,30.66l-147.26 -25.21c-2.96,-0.6 -19.16,-3.9 -21.75,-4.76l-26.55 -13.51 356.1 -77.87c66.43,-17.41 52.58,-15.5 120.97,-2.58 54.74,10.34 207.39,33.72 260.25,26.08 50.27,-7.26 50.38,-69.29 10,-83.11 -24.12,-8.27 -101.49,-6.4 -138.93,-14.05 69.86,-35.87 213.52,-69.01 270.03,-111.37 42.56,-31.9 21.41,-104.83 -65.25,-65.54 -43.91,19.91 -89.71,40.33 -135.16,57.39 -52.48,19.72 -241.34,92.94 -291.97,82.74 -79.55,-16.03 -231.85,-62.12 -299.33,-93.36 27.7,-15.22 98.82,-32.19 132.04,-43.15 46.3,-15.26 92.91,-31.62 137.92,-48.04 195.63,-71.35 95.6,-53.16 298.97,-51.77 131.77,0.9 562.92,-18.07 637.18,-87.84 8.13,-75.12 -41.33,-64.74 -97.38,-52.16 -48.09,10.81 -96.38,18.63 -145.21,25.85 -107.9,15.94 -219.56,25.27 -329.81,26.09 21.55,-20.85 60.29,-31.46 94.25,-47.46 144.97,-68.3 344.89,-164.56 479.27,-241.73 52.45,-30.12 168.67,-63.99 109.96,-135.51 -31.52,-19.95 -217.19,93.3 -273.25,123.11 -172.25,91.61 -368.16,185.34 -549.36,260.98 -70.23,29.32 -71.3,38.23 -160.83,30.1 -64.25,-5.84 -123.94,-13.52 -187.31,-21.71l-357.96 -75.16zm-289.72 448.69c35.83,24.81 85.11,51.54 132,74.5 74.29,36.39 70.78,44.39 161.97,29.1 120.97,-20.3 233.08,-45.1 349.69,-69.36 -16.17,-10.09 -287.78,-105.13 -298.27,-104.22 -37.74,3.26 -123.23,28.15 -166.96,37.01 -42.33,8.58 -147.15,21 -178.43,32.97z"/>
 </g>
</svg>
